<?xml version="1.0" standalone="no"?>
<!DOCTYPE svg PUBLIC "-//W3C//DTD SVG 20010904//EN"
 "http://www.w3.org/TR/2001/REC-SVG-20010904/DTD/svg10.dtd">
<svg version="1.0" xmlns="http://www.w3.org/2000/svg"
 width="602.000000pt" height="675.000000pt" viewBox="0 0 602.000000 675.000000"
 preserveAspectRatio="xMidYMid meet">

<g transform="translate(0.000000,675.000000) scale(0.100000,-0.100000)"
fill="#000000" stroke="none">
<path d="M2640 6733 c-201 -14 -476 -47 -565 -68 -33 -8 -112 -24 -175 -36
-63 -12 -133 -27 -155 -34 -22 -8 -87 -26 -144 -40 -112 -28 -312 -93 -401
-130 -206 -86 -267 -113 -365 -162 -248 -125 -446 -268 -494 -358 -12 -22 -21
-46 -21 -53 0 -11 66 -106 127 -182 54 -68 52 -66 53 -45 0 11 15 38 32 60 65
78 137 135 304 241 49 32 269 139 334 164 19 7 40 17 47 22 44 34 571 197 736
228 452 85 688 109 1062 109 362 0 758 -41 1045 -108 47 -11 127 -29 179 -41
52 -12 102 -26 110 -30 9 -5 54 -18 101 -31 47 -12 103 -30 125 -40 22 -9 72
-27 110 -40 116 -37 406 -175 541 -257 155 -94 280 -207 291 -264 3 -15 8 -28
12 -28 15 1 171 226 171 247 0 13 -8 36 -17 51 -22 36 -106 116 -168 160 -27
19 -64 46 -81 59 -17 12 -34 23 -38 23 -5 0 -21 9 -37 21 -32 22 -278 149
-324 167 -17 6 -57 23 -90 37 -259 111 -651 230 -875 265 -41 6 -97 18 -125
25 -56 15 -325 49 -510 65 -108 9 -682 11 -795 3z"/>
<path d="M2698 6384 c8 -4 12 -33 12 -94 0 -61 -4 -90 -12 -93 -7 -3 13 -6 46
-6 100 -2 147 43 132 123 -10 54 -37 70 -119 73 -40 2 -66 0 -59 -3z m112 -19
c7 -9 15 -38 18 -65 5 -56 -15 -100 -47 -100 -15 0 -19 11 -24 68 -11 108 -10
112 17 112 13 0 29 -7 36 -15z"/>
<path d="M2952 6328 c-12 -35 -22 -66 -22 -70 0 -4 17 -8 37 -10 28 -2 39 -8
41 -22 2 -10 -2 -22 -10 -27 -8 -6 2 -9 30 -9 46 0 50 5 26 38 -8 12 -26 52
-38 89 -12 37 -27 68 -32 70 -5 2 -19 -25 -32 -59z m41 -50 c5 -15 1 -18 -23
-18 -17 0 -30 2 -30 4 0 1 5 17 11 35 10 29 12 31 24 14 6 -10 15 -26 18 -35z"/>
<path d="M3098 6383 c8 -3 12 -31 12 -88 0 -69 -3 -86 -17 -94 -29 -17 92 -13
132 4 42 17 59 54 50 108 -10 54 -50 77 -130 76 -33 0 -54 -3 -47 -6z m120
-33 c15 -29 9 -114 -9 -136 -6 -8 -22 -14 -35 -14 -23 0 -24 2 -24 83 0 46 3
87 7 91 14 14 48 1 61 -24z"/>
<path d="M2613 6369 c14 -8 17 -24 17 -84 0 -80 -15 -109 -53 -103 -24 3 -46
74 -47 146 0 42 0 42 -37 42 -31 0 -34 -2 -21 -12 10 -8 18 -37 23 -78 8 -83
25 -110 68 -110 63 0 75 19 79 120 l3 90 -25 0 c-22 -1 -23 -2 -7 -11z"/>
<path d="M3388 6373 c14 -5 16 -85 3 -149 l-8 -42 47 -6 c84 -11 133 25 133
97 0 53 -33 97 -72 96 -25 0 -25 -1 -4 -9 58 -23 32 -180 -30 -180 -19 0 -20
5 -13 100 l7 100 -38 -1 c-21 0 -32 -3 -25 -6z"/>
<path d="M2360 6350 c-16 -5 -19 -8 -8 -9 20 -1 24 -17 33 -113 7 -68 7 -68
37 -68 25 0 28 2 19 14 -7 9 -13 51 -14 100 -2 94 -4 96 -67 76z"/>
<path d="M3624 6333 c-3 -64 -17 -149 -27 -160 -7 -10 -2 -13 22 -13 28 0 31
3 32 30 3 59 1 57 39 52 6 -1 10 -9 10 -19 0 -29 7 -9 13 37 5 33 4 39 -3 23
-11 -28 -50 -32 -50 -5 0 35 13 62 29 63 9 1 5 4 -9 9 -45 14 -55 11 -56 -17z"/>
<path d="M2310 6340 c0 -7 -15 -9 -37 -6 -34 5 -35 5 -10 -3 16 -5 35 -15 43
-22 11 -9 14 -7 14 15 0 14 -2 26 -5 26 -3 0 -5 -5 -5 -10z"/>
<path d="M3731 6327 c9 -7 18 -19 22 -27 3 -9 6 -4 6 13 1 22 -3 27 -21 27
-20 -1 -21 -2 -7 -13z"/>
<path d="M2187 6312 c-44 -48 -27 -145 28 -168 46 -19 125 6 125 39 0 6 -9 1
-20 -11 -26 -27 -71 -29 -94 -3 -26 28 -33 122 -11 144 13 13 13 17 2 17 -8 0
-21 -8 -30 -18z"/>
<path d="M3920 6308 c-62 -22 -86 -114 -41 -162 37 -40 71 -47 112 -24 18 10
25 16 14 12 -48 -16 -64 -15 -84 5 -12 12 -21 33 -21 49 0 44 19 101 38 111
24 14 12 20 -18 9z"/>
<path d="M3998 6296 c12 -10 22 -24 22 -32 0 -8 5 -14 10 -14 6 0 10 11 10 25
0 15 -6 25 -14 25 -8 0 -23 3 -33 6 -13 5 -12 2 5 -10z"/>
<path d="M4089 6277 c15 -19 -19 -177 -38 -177 -14 -1 -14 -2 -1 -9 8 -5 26
-11 40 -14 24 -6 25 -4 25 38 0 24 3 46 6 49 3 4 20 3 38 0 30 -6 31 -8 25
-43 -4 -20 -11 -42 -17 -48 -7 -9 -5 -13 6 -13 8 0 22 -2 29 -5 11 -4 17 13
27 75 8 45 20 87 27 95 11 11 11 14 -2 19 -30 12 -44 6 -44 -18 0 -37 -10 -56
-30 -56 -50 0 -61 23 -36 72 14 26 13 26 -26 36 -29 8 -37 7 -29 -1z"/>
<path d="M1945 6234 c-3 -25 -4 -48 -1 -52 3 -3 6 5 6 18 0 19 3 20 15 10 8
-6 17 -21 21 -33 4 -12 13 -28 21 -36 8 -7 12 -23 9 -33 -4 -18 -1 -19 32 -13
47 9 48 9 23 34 -11 11 -39 50 -61 86 -23 36 -45 65 -50 65 -4 0 -11 -21 -15
-46z"/>
<path d="M1827 6241 c-17 -6 -16 -8 7 -19 21 -9 26 -9 26 3 0 19 -11 24 -33
16z"/>
<path d="M1747 6229 c-9 -5 -24 -26 -32 -46 -31 -73 24 -150 98 -140 38 5 77
31 77 50 0 6 -9 1 -20 -11 -21 -22 -64 -29 -87 -14 -33 21 -45 129 -17 156 17
18 8 21 -19 5z"/>
<path d="M2903 6215 c-10 -23 -9 -25 14 -25 21 0 23 2 13 15 -6 8 -9 19 -5 25
3 5 3 10 -2 10 -4 0 -13 -11 -20 -25z"/>
<path d="M4306 6143 c-10 -43 -23 -86 -28 -95 -7 -14 -5 -18 11 -18 11 0 23
-4 26 -10 11 -18 26 -10 20 10 -4 12 1 54 11 95 15 62 21 75 37 75 29 0 18 6
-24 14 l-35 6 -18 -77z"/>
<path d="M1605 6189 c-22 -10 -33 -19 -24 -19 11 0 22 -22 37 -76 11 -42 18
-82 16 -89 -4 -11 3 -11 35 -3 39 10 56 28 27 28 -8 0 -19 15 -24 33 -5 17
-15 51 -22 74 -7 23 -10 49 -7 57 4 9 5 16 4 15 -1 0 -20 -9 -42 -20z"/>
<path d="M3736 6179 c-10 -10 -32 -20 -50 -22 -23 -3 -19 -4 15 -5 40 -2 47 1
52 20 8 28 6 29 -17 7z"/>
<path d="M1931 6145 c0 -16 3 -25 7 -19 4 7 16 14 27 17 19 4 19 5 -2 6 -12 0
-24 7 -26 14 -3 6 -6 -1 -6 -18z"/>
<path d="M4434 6151 c-21 -13 -33 -30 -38 -51 -11 -55 -7 -71 23 -101 23 -22
39 -29 70 -29 22 0 42 4 45 8 3 5 -9 6 -25 4 -50 -7 -79 15 -79 59 0 21 5 41
10 44 6 3 10 14 10 24 0 21 27 47 55 54 14 3 11 5 -10 6 -16 0 -44 -8 -61 -18z"/>
<path d="M2785 6149 c-188 -8 -349 -25 -515 -54 -208 -37 -366 -69 -375 -76
-5 -4 -68 -22 -140 -39 -71 -18 -134 -36 -140 -40 -5 -4 -55 -22 -110 -40 -55
-18 -104 -36 -110 -40 -5 -4 -37 -17 -70 -30 -64 -25 -277 -128 -335 -162
-178 -105 -310 -227 -310 -286 0 -13 14 -41 31 -61 17 -20 38 -45 47 -56 10
-11 30 -39 45 -62 28 -40 28 -42 10 -62 -14 -17 -29 -21 -71 -21 -54 0 -54 0
-32 -18 l23 -18 -49 -31 c-80 -50 -165 -89 -281 -126 -136 -44 -205 -57 -311
-57 l-84 0 19 -29 c41 -65 201 -220 211 -205 4 6 36 16 72 23 75 14 270 70
286 82 5 4 48 27 95 50 46 23 96 51 112 61 15 10 40 27 57 38 41 28 52 26 82
-23 22 -34 58 -139 58 -167 0 -8 -93 -69 -145 -95 -22 -11 -51 -28 -65 -37
-88 -58 -494 -201 -502 -176 -2 5 -28 -24 -58 -64 -30 -40 -87 -110 -128 -156
l-73 -82 58 6 c116 13 303 54 424 95 129 42 137 46 255 98 39 17 76 31 82 31
7 0 12 5 12 10 0 6 5 10 10 10 6 0 33 11 62 25 28 14 55 25 60 25 4 0 8 -712
8 -1582 1 -871 5 -1601 9 -1623 22 -101 44 -166 83 -240 22 -44 44 -82 47 -85
3 -3 19 -22 34 -43 37 -49 120 -126 166 -153 104 -63 134 -74 261 -94 36 -6
94 -18 129 -27 34 -8 147 -30 250 -49 335 -60 596 -110 616 -118 11 -4 43 -17
71 -28 99 -37 209 -135 303 -270 28 -40 51 -67 51 -61 0 13 66 110 105 154 50
55 133 126 178 151 83 47 155 67 342 98 105 17 199 35 210 40 11 5 112 25 225
44 502 87 548 102 685 221 94 82 186 228 220 350 10 33 22 71 29 85 8 18 12
459 14 1631 l2 1607 120 -59 c66 -33 122 -59 125 -59 3 0 24 -9 48 -20 23 -11
85 -33 137 -50 52 -17 104 -35 115 -40 37 -16 236 -56 373 -75 l43 -5 -63 73
c-72 84 -119 143 -132 166 -5 9 -15 20 -23 24 -7 4 -13 14 -13 21 0 7 -13 13
-33 14 -17 1 -75 15 -127 32 -52 16 -98 30 -102 30 -3 0 -39 15 -80 33 -40 18
-93 42 -118 52 -25 10 -52 24 -60 31 -8 6 -38 23 -66 38 -95 47 -144 85 -144
112 0 35 33 123 62 165 l24 36 90 -55 c92 -57 243 -132 304 -151 80 -24 139
-40 200 -52 36 -6 70 -16 76 -21 18 -13 224 194 224 224 0 5 -35 8 -77 8 -107
0 -178 13 -318 59 -111 36 -249 100 -302 141 l-23 18 23 15 c21 15 20 16 -29
16 -36 1 -58 7 -74 21 -23 20 -23 20 -4 43 11 12 27 32 35 44 8 11 35 48 61
81 53 69 54 83 4 147 -41 53 -81 88 -141 127 -27 18 -52 35 -55 38 -19 23
-365 200 -390 200 -6 0 -32 11 -58 24 -26 13 -92 38 -147 56 -55 17 -104 35
-110 39 -5 5 -68 23 -140 41 -71 18 -134 37 -140 41 -16 12 -400 82 -575 105
-94 12 -175 16 -485 28 -49 1 -175 -1 -280 -5z m630 -309 c162 -19 387 -50
425 -60 19 -5 89 -21 155 -35 174 -38 409 -110 463 -141 2 -1 -7 -26 -21 -56
-13 -29 -30 -70 -36 -90 -7 -21 -16 -40 -21 -43 -5 -3 -14 -22 -21 -43 -6 -20
-22 -60 -35 -89 -16 -34 -24 -70 -24 -107 l0 -56 -1285 0 -1285 0 0 53 c0 28
-7 66 -16 82 -9 17 -25 55 -36 85 -11 30 -24 60 -29 65 -4 6 -17 37 -30 70
-12 33 -28 69 -35 80 -37 53 -20 62 261 144 100 29 338 83 440 100 109 18 328
43 445 51 149 11 557 5 685 -10z m1815 -753 c0 -2 -28 -33 -62 -68 -87 -88
-111 -124 -146 -211 -16 -40 -17 -169 -23 -1823 -5 -1634 -7 -1786 -22 -1849
-10 -38 -21 -74 -26 -80 -5 -6 -14 -27 -20 -47 -19 -59 -110 -190 -175 -252
-97 -93 -202 -138 -401 -171 -88 -15 -178 -32 -200 -38 -22 -6 -134 -28 -250
-49 -309 -56 -507 -96 -535 -108 -106 -46 -230 -148 -317 -262 -20 -27 -40
-49 -43 -49 -3 0 -16 17 -30 38 -64 96 -178 195 -290 253 -66 34 -117 46 -530
120 -91 16 -203 38 -250 49 -47 10 -155 31 -240 45 -85 15 -168 33 -185 40
-133 57 -148 67 -242 156 -32 31 -110 143 -131 189 -44 99 -56 133 -68 200
-11 61 -13 402 -14 1816 0 1681 -1 1743 -19 1796 -22 64 -48 116 -67 136 -8 7
-14 17 -14 22 0 4 -29 36 -65 71 -36 35 -65 67 -65 72 0 4 997 7 2215 7 1218
0 2215 -1 2215 -3z"/>
<path d="M1070 4935 c0 -3 14 -24 30 -47 17 -22 30 -51 30 -63 0 -11 6 -27 13
-33 9 -10 13 -388 17 -1795 5 -1722 6 -1784 24 -1852 36 -129 120 -245 230
-316 72 -47 134 -71 256 -98 52 -11 115 -25 140 -30 25 -6 106 -22 180 -37 74
-14 151 -30 170 -35 19 -4 118 -24 220 -43 102 -20 192 -39 200 -42 8 -3 49
-14 90 -25 73 -19 140 -45 150 -59 3 -3 26 -21 52 -38 26 -18 53 -41 60 -51 7
-10 28 -34 45 -55 l33 -36 78 77 c92 91 121 113 182 136 71 26 223 63 380 92
80 15 170 33 200 41 30 8 116 26 190 39 145 27 331 68 420 93 144 40 271 146
340 282 23 45 33 74 53 145 7 28 12 590 16 1820 l6 1780 32 68 c18 37 37 67
43 67 6 0 8 5 5 10 -6 10 -3885 15 -3885 5z m3478 -2100 c2 -1096 0 -1595 -8
-1630 -19 -90 -92 -173 -179 -203 -25 -9 -365 -12 -1351 -12 -1184 0 -1321 2
-1356 16 -56 23 -99 58 -136 112 l-33 47 -3 1628 -2 1627 1532 -2 1533 -3 3
-1580z"/>
<path d="M1612 2762 l3 -1509 30 -43 c19 -27 46 -50 72 -62 40 -17 95 -18
1311 -16 1253 3 1271 3 1297 23 15 11 41 40 59 63 l31 44 3 1504 2 1504 -1405
0 -1405 0 2 -1508z m1098 1388 c0 -49 2 -90 4 -90 2 0 32 13 68 29 95 44 187
56 303 41 123 -16 258 -85 353 -180 40 -40 79 -87 86 -104 8 -17 22 -40 31
-51 16 -19 16 -18 0 8 -9 16 -15 30 -13 33 2 2 164 4 359 4 l354 1 3 -330 2
-331 -328 0 -329 0 3 28 4 27 -10 -29 c-10 -32 -78 -106 -97 -106 -22 0 -94
77 -104 112 -12 43 -12 98 1 98 6 0 10 -4 10 -9 0 -13 50 -71 60 -71 5 0 -2
11 -15 25 -35 34 -31 55 3 22 34 -33 55 -34 82 -5 21 23 34 21 24 -5 -3 -8
-22 -22 -42 -31 -20 -8 -31 -15 -24 -15 31 -2 71 30 82 64 10 30 14 34 23 21
10 -12 54 -14 287 -13 l275 2 3 218 2 217 -289 0 c-284 0 -290 0 -296 21 -4
11 -9 19 -11 16 -2 -2 2 -23 11 -46 21 -60 37 -203 29 -262 l-7 -50 -46 3 -46
3 -2 40 c-5 119 -30 208 -78 281 -63 97 -190 193 -290 220 -69 19 -219 18
-285 -2 -201 -60 -360 -272 -360 -483 l0 -61 -50 0 c-45 0 -50 2 -56 26 -10
39 3 194 21 243 8 24 15 45 15 47 0 2 -130 4 -290 4 l-290 0 0 -220 0 -220
274 0 c210 0 276 -3 279 -12 3 -7 6 -3 6 10 1 23 21 32 21 9 0 -7 7 -22 16
-33 14 -18 15 -18 4 4 -7 13 -8 27 -4 30 4 4 9 1 11 -6 17 -46 63 -54 98 -16
20 22 25 24 25 9 0 -14 3 -13 20 6 l19 24 2 -55 3 -55 3 46 c4 41 7 46 24 42
23 -6 25 -26 4 -43 -39 -33 2 -120 56 -120 36 0 89 47 89 78 0 11 -14 35 -32
52 -23 24 -38 31 -59 28 -28 -4 -30 -1 -54 90 l-6 22 354 0 355 0 -5 -22 c-22
-97 -23 -98 -48 -92 -16 4 -34 -1 -55 -16 -24 -17 -30 -28 -30 -59 0 -47 27
-74 75 -75 34 -1 35 -2 35 -43 0 -39 2 -43 24 -43 23 0 25 -5 32 -67 4 -38 2
-95 -3 -128 -8 -49 -7 -62 4 -70 12 -9 14 -55 12 -260 -1 -138 -2 -261 -1
-275 0 -14 2 -125 4 -247 l3 -223 -52 0 -53 0 0 186 0 185 35 14 c32 14 63 50
52 62 -3 2 -8 -4 -11 -15 -13 -40 -47 -43 -391 -40 -215 2 -319 0 -302 -6 l27
-10 0 -188 0 -188 -52 0 -53 0 5 237 c6 247 13 293 50 313 11 6 156 11 352 11
183 1 323 4 311 6 -22 4 -23 9 -23 85 0 78 1 83 35 124 28 34 35 51 35 86 0
24 -7 52 -15 62 -20 27 -19 63 3 69 9 3 -146 5 -346 6 l-362 1 -12 28 c-6 15
-11 75 -11 136 0 69 -3 103 -9 95 -6 -9 -8 17 -6 71 l3 85 -46 -47 c-25 -27
-52 -48 -61 -48 -22 0 -82 76 -96 123 l-12 42 4 -42 4 -43 -324 0 -324 0 0
330 0 330 355 0 355 0 -20 -40 c-11 -21 -20 -45 -19 -52 0 -7 9 6 19 30 44 98
112 176 235 268 19 14 19 14 -5 3 -14 -6 -35 -21 -47 -32 l-23 -20 0 121 0
122 50 0 50 0 0 -90z m693 -27 c-1 -65 -3 -120 -3 -123 0 -3 -4 0 -8 6 -4 6
-26 23 -49 38 l-43 26 0 85 0 85 53 0 52 0 -2 -117z m-230 -211 c86 -34 169
-100 223 -177 54 -77 75 -139 81 -242 l6 -83 -47 0 -46 0 0 43 c0 112 -62 231
-165 315 -29 24 -99 50 -166 63 -120 22 -245 -24 -332 -121 -61 -68 -88 -128
-101 -222 l-10 -78 -43 0 -43 0 0 63 c0 146 96 320 220 398 29 18 153 66 190
73 53 10 166 -6 233 -32z m-51 -124 c51 -17 129 -76 164 -122 41 -56 62 -112
70 -190 l7 -66 -358 0 -358 0 6 63 c17 196 186 347 374 332 33 -3 76 -10 95
-17z m-532 -397 c0 -5 -10 -34 -21 -65 -22 -56 -51 -78 -79 -61 -12 8 -35 60
-45 104 l-7 31 76 0 c42 0 76 -4 76 -9z m979 -23 c-24 -85 -55 -122 -86 -102
-12 7 -63 114 -63 131 0 2 36 3 79 3 l80 0 -10 -32z m-185 -115 c14 -93 21
-215 14 -219 -5 -3 -8 2 -8 10 0 10 -9 16 -25 16 -23 0 -25 4 -25 44 0 26 6
48 15 56 8 7 15 27 15 45 0 18 -7 38 -15 45 -25 21 -17 45 16 49 4 1 9 -20 13
-46z m-849 -219 c87 -12 81 -3 82 -106 0 -51 2 -101 4 -112 3 -15 -13 -24 -91
-52 -52 -19 -96 -34 -97 -34 -2 0 -3 73 -3 161 l0 162 33 -7 c17 -4 50 -9 72
-12z m1053 -146 c1 -87 -1 -158 -4 -158 -4 0 -49 14 -99 32 l-92 32 1 113 1
113 35 5 c19 3 53 10 75 14 84 18 80 26 83 -151z m-948 -108 c0 -5 7 -10 15
-10 8 0 15 -7 15 -15 0 -9 -7 -32 -15 -52 -26 -61 -20 -104 20 -143 35 -34 35
-35 35 -120 l0 -86 -32 -9 c-23 -7 -39 -21 -50 -45 -18 -34 -18 -29 -18 221 0
141 3 259 7 262 10 10 23 8 23 -3z m690 -37 c0 -16 7 -37 15 -47 8 -11 15 -38
15 -60 0 -35 -7 -47 -45 -84 -36 -35 -44 -49 -42 -74 2 -27 -2 -32 -28 -39
-16 -5 -132 -9 -257 -9 -209 0 -228 2 -250 20 -12 11 -18 19 -11 20 29 0 16
38 -29 81 -41 40 -48 51 -48 86 0 21 7 48 15 59 8 10 15 31 15 47 l0 27 325 0
325 0 0 -27z m516 -226 c9 3 14 -2 14 -17 0 -16 4 -20 15 -16 8 3 22 9 30 12
11 5 15 -1 15 -25 0 -21 5 -31 15 -31 8 0 15 -4 15 -10 0 -5 7 -10 15 -10 8 0
15 -3 15 -6 0 -4 -31 -48 -70 -99 -68 -90 -84 -125 -57 -125 12 0 298 291 305
311 2 5 8 9 13 9 5 0 9 -70 9 -161 0 -139 -2 -160 -15 -155 -8 3 -22 9 -30 12
-13 5 -15 -6 -15 -70 0 -42 -4 -76 -9 -76 -5 0 -39 11 -75 25 -37 14 -71 25
-76 25 -5 0 -10 -27 -12 -59 l-3 -59 -59 34 c-32 19 -72 38 -88 41 -16 3 -36
16 -45 29 -11 17 -25 24 -49 24 -41 0 -53 17 -25 36 21 15 26 39 15 69 -6 14
-8 13 -18 -6 -6 -12 -30 -33 -53 -45 -24 -12 -43 -22 -43 -21 0 1 4 16 9 34
l9 32 -41 3 -41 3 49 50 c28 28 97 100 155 160 73 76 106 105 108 93 2 -10 9
-15 18 -11z m-1080 -131 c-1 -19 -4 -32 -8 -29 -11 6 -10 63 0 63 5 0 8 -15 8
-34z m296 8 c-3 -16 1 -30 9 -35 9 -5 -16 -9 -66 -9 -50 0 -75 4 -66 9 8 5 12
19 9 35 -5 26 -5 26 57 26 62 0 62 0 57 -26z m198 -4 c4 -24 1 -40 -7 -40 -5
0 -8 16 -9 35 0 34 12 37 16 5z m0 -430 l0 -190 116 0 116 0 -7 -77 c-12 -139
-57 -235 -152 -330 -23 -23 -61 -52 -85 -64 -24 -12 -45 -25 -48 -30 -9 -14
-132 -39 -192 -39 -84 0 -156 18 -221 56 -32 19 -62 34 -66 34 -12 0 -82 77
-117 130 -44 65 -76 164 -82 248 l-5 72 119 0 119 0 -3 190 -3 190 256 0 255
0 0 -190z m-1200 -28 c0 -63 -4 -82 -17 -94 -42 -36 -43 -34 -43 71 l0 101 30
0 30 0 0 -78z m200 2 c0 -66 -3 -78 -22 -95 -13 -10 -26 -18 -30 -19 -10 0
-11 174 -1 183 3 4 17 7 30 7 22 0 23 -3 23 -76z m1941 0 c30 -18 34 -25 37
-69 3 -47 2 -48 -15 -34 -27 24 -80 39 -135 39 -53 0 -192 -26 -220 -41 -10
-5 -47 -12 -82 -16 -55 -5 -71 -2 -120 20 l-56 26 0 45 c0 26 2 46 5 46 3 0
28 -12 55 -26 59 -31 102 -29 255 10 120 31 223 31 276 0z m-2255 -164 c11 0
83 40 97 54 17 17 79 56 89 56 4 0 8 -25 10 -55 l3 -55 55 35 c30 19 72 44 93
55 l37 20 0 -55 0 -55 40 0 40 0 0 -110 0 -110 -355 0 -356 0 3 107 3 107 37
1 c35 1 48 8 153 84 l40 29 3 -54 c2 -30 5 -54 8 -54z m2209 9 c61 -15 85 -41
85 -89 0 -43 -5 -48 -29 -26 -35 31 -105 41 -198 27 -48 -7 -90 -16 -93 -21
-3 -5 -44 -14 -92 -21 -69 -10 -94 -10 -129 0 -73 22 -89 37 -89 87 l0 43 53
-24 c57 -27 117 -31 182 -14 174 47 241 55 310 38z m30 -181 c41 -21 55 -41
55 -80 0 -21 -2 -38 -5 -38 -2 0 -20 9 -39 19 -68 39 -124 37 -306 -10 -107
-27 -202 -23 -249 10 -27 19 -31 28 -31 67 l0 46 38 -24 c31 -19 50 -23 122
-23 57 0 103 6 140 19 103 35 221 41 275 14z m-1475 -366 c0 -78 -1 -82 -24
-88 -13 -3 -35 -4 -47 -2 -24 3 -24 5 -27 140 l-3 137 51 -53 50 -53 0 -81z
m691 51 c-1 -70 -4 -130 -7 -135 -3 -4 -19 -6 -37 -4 -18 3 -38 5 -44 5 -9 1
-13 24 -13 83 l0 81 48 52 c26 28 49 50 51 48 2 -2 3 -60 2 -130z"/>
<path d="M2740 3363 c51 -59 74 -73 117 -73 32 0 46 5 57 21 13 19 13 25 0 50
-14 29 -16 29 -106 29 l-91 0 23 -27z"/>
<path d="M2970 3366 c0 -14 -4 -28 -10 -31 -5 -3 -10 -19 -10 -36 0 -29 0 -29
61 -29 l62 0 -7 32 c-3 18 -13 36 -21 41 -8 4 -15 17 -15 27 0 16 -7 20 -30
20 -25 0 -30 -4 -30 -24z"/>
<path d="M3094 3365 c-3 -14 -3 -36 0 -50 6 -22 12 -25 55 -25 41 0 53 5 89
38 23 22 42 44 42 50 0 8 -29 12 -90 12 -87 0 -90 -1 -96 -25z"/>
<path d="M2546 3245 c-11 -8 -15 -15 -10 -15 6 0 19 7 30 15 10 8 15 14 9 14
-5 0 -19 -6 -29 -14z"/>
<path d="M2820 3196 l0 -54 45 -14 c52 -18 55 -15 55 68 l0 54 -50 0 -50 0 0
-54z"/>
<path d="M2952 3223 c3 -26 7 -28 56 -31 l52 -3 0 30 c0 31 0 31 -56 31 -54 0
-55 0 -52 -27z"/>
<path d="M3090 3186 c0 -65 10 -86 33 -68 7 5 24 12 40 16 25 6 27 10 27 61
l0 55 -50 0 -50 0 0 -64z"/>
<path d="M2965 3154 c-25 -26 -12 -39 43 -42 45 -3 52 -1 52 15 0 42 -62 59
-95 27z"/>
<path d="M2770 3112 c0 -33 89 -52 241 -51 144 0 221 18 227 52 5 22 -15 22
-73 -3 -38 -16 -69 -20 -164 -20 -97 0 -123 3 -156 20 -49 25 -75 26 -75 2z"/>
<path d="M2710 3066 c0 -9 8 -16 19 -16 29 0 91 -75 91 -110 0 -23 4 -30 20
-30 26 0 25 20 -4 78 -29 58 -53 80 -94 88 -25 5 -32 3 -32 -10z"/>
<path d="M3250 3071 c-29 -8 -88 -86 -96 -130 -6 -27 -4 -31 15 -31 15 0 21 6
21 24 0 34 40 89 77 106 18 8 33 21 33 28 0 13 -11 14 -50 3z"/>
<path d="M2648 3053 c6 -2 18 -2 25 0 6 3 1 5 -13 5 -14 0 -19 -2 -12 -5z"/>
<path d="M2880 2973 c0 -65 0 -66 20 -48 11 10 20 29 20 42 0 22 2 23 85 23
82 0 85 -1 85 -23 0 -12 9 -30 20 -40 20 -17 20 -16 20 48 l0 65 -125 0 -125
0 0 -67z"/>
<path d="M2650 2941 c0 -37 5 -82 11 -100 l11 -31 89 0 89 0 0 40 c0 32 -4 40
-19 40 -13 0 -20 10 -24 36 -9 54 -47 84 -108 84 l-49 0 0 -69z"/>
<path d="M3255 2998 c-31 -17 -45 -39 -45 -74 0 -28 -4 -33 -27 -36 -24 -3
-28 -8 -31 -40 l-3 -38 95 0 94 0 16 52 c12 41 13 61 4 100 -11 46 -13 48 -47
48 -20 0 -45 -6 -56 -12z"/>
<path d="M2913 2910 c-28 -17 -33 -25 -33 -60 l0 -40 55 0 55 0 0 44 c0 80
-17 93 -77 56z"/>
<path d="M3030 2870 l0 -60 50 0 50 0 0 39 c0 32 -5 43 -29 60 -16 12 -39 21
-50 21 -19 0 -21 -6 -21 -60z"/>
<path d="M3359 2325 c17 -34 31 -51 31 -39 0 7 -9 22 -21 35 -16 19 -18 20
-10 4z"/>
<path d="M2696 2284 c-37 -37 1 -74 76 -74 l48 0 0 45 0 45 -54 0 c-36 0 -60
-5 -70 -16z"/>
<path d="M2848 2255 l4 -45 69 0 69 0 0 45 0 45 -73 0 -72 0 3 -45z"/>
<path d="M3020 2255 l0 -45 70 0 70 0 0 45 0 45 -70 0 -70 0 0 -45z"/>
<path d="M3190 2255 l0 -45 44 0 c60 0 96 15 96 39 0 35 -27 51 -86 51 l-54 0
0 -45z"/>
<path d="M2621 2229 c-1 -8 6 -24 15 -35 15 -19 15 -19 6 1 -5 11 -12 27 -15
35 -5 13 -6 13 -6 -1z"/>
<path d="M2992 3911 c-20 -12 -10 -46 13 -46 14 0 20 7 20 24 0 27 -13 35 -33
22z"/>
<path d="M2764 3845 c-9 -23 3 -45 25 -45 25 0 34 14 26 40 -7 23 -43 27 -51
5z"/>
<path d="M3197 3846 c-10 -26 4 -47 27 -44 15 2 21 10 21 28 0 29 -38 41 -48
16z"/>
<path d="M2605 3680 c-8 -25 1 -40 25 -40 22 0 30 19 18 43 -12 23 -35 22 -43
-3z"/>
<path d="M3360 3686 c-18 -22 -5 -46 25 -46 23 0 26 4 23 27 -3 32 -29 41 -48
19z"/>
<path d="M2925 3674 c-70 -26 -135 -119 -135 -193 0 -8 71 -11 215 -11 l215 0
0 28 c-1 42 -33 104 -73 139 -59 52 -143 66 -222 37z"/>
<path d="M2460 2963 l0 -38 60 3 c58 4 60 5 60 32 0 24 -5 28 -37 34 -77 12
-83 10 -83 -31z"/>
<path d="M2460 2840 c0 -27 3 -50 6 -50 4 0 34 10 66 22 42 15 57 25 53 35 -3
8 -5 21 -5 29 0 10 -15 14 -60 14 l-60 0 0 -50z"/>
<path d="M3458 2993 c-23 -4 -28 -9 -28 -33 0 -26 3 -28 49 -32 73 -5 81 -1
81 38 0 33 -1 34 -37 33 -21 -1 -50 -4 -65 -6z"/>
<path d="M3426 2864 c-4 -14 -6 -28 -4 -29 7 -7 114 -45 126 -45 9 0 12 14 10
48 l-3 47 -61 3 c-59 3 -62 2 -68 -24z"/>
<path d="M2720 2722 c0 -10 -7 -27 -15 -38 -24 -32 -18 -72 18 -114 17 -22 38
-40 45 -40 15 0 15 -6 1 -32 -17 -31 3 -38 107 -38 112 0 124 9 89 66 -13 21
-25 51 -25 67 0 27 1 27 65 27 l65 0 0 -31 c0 -17 -9 -42 -20 -56 -11 -14 -20
-36 -20 -49 0 -23 2 -24 88 -24 100 0 132 7 132 26 0 8 -4 14 -10 14 -5 0 -10
7 -10 15 0 8 6 15 13 15 6 0 27 18 45 40 35 42 41 82 17 114 -8 11 -15 28 -15
38 0 17 -17 18 -285 18 -268 0 -285 -1 -285 -18z m205 -22 c3 -5 39 -10 80
-10 41 0 77 5 80 10 7 12 175 14 175 2 0 -5 -7 -17 -15 -28 -15 -19 -15 -19
-30 0 -14 19 -15 19 -35 1 -19 -17 -21 -17 -38 -2 -16 15 -20 15 -39 2 -14
-10 -24 -12 -28 -5 -8 14 -111 13 -137 -1 -18 -9 -24 -8 -35 6 -12 18 -14 18
-34 -1 -20 -18 -22 -18 -34 -1 -15 21 -22 21 -42 2 -17 -18 -29 -13 -36 15 -5
19 0 20 78 20 46 0 87 -4 90 -10z m-125 -105 c0 -18 -5 -25 -18 -25 -10 0 -29
11 -42 25 l-23 25 41 0 c38 0 42 -2 42 -25z m480 18 c0 -14 -34 -43 -52 -43
-13 0 -18 7 -18 25 0 22 4 25 35 25 19 0 35 -3 35 -7z"/>
<path d="M3795 2424 c-24 -25 -4 -73 32 -74 16 0 43 28 43 45 0 18 -27 45 -45
45 -7 0 -21 -7 -30 -16z"/>
<path d="M1770 1656 c0 -25 5 -48 10 -51 6 -4 10 12 10 39 l0 46 70 0 70 0 0
-40 0 -39 -67 -4 -68 -3 73 -2 72 -2 0 50 0 50 -85 0 -85 0 0 -44z"/>
<path d="M1971 1678 c1 -17 2 -19 6 -5 4 14 16 17 79 17 l74 0 0 -40 0 -39
-77 -4 -78 -3 83 -2 82 -2 0 50 0 50 -85 0 c-82 0 -85 -1 -84 -22z"/>
<path d="M2172 1658 l1 -43 4 38 4 37 74 0 74 0 4 -47 3 -48 2 53 2 52 -85 0
-85 0 2 -42z"/>
<path d="M2213 1603 c20 -2 54 -2 75 0 20 2 3 4 -38 4 -41 0 -58 -2 -37 -4z"/>
<path d="M1442 6138 c-44 -12 -75 -61 -68 -108 7 -46 55 -90 99 -90 l32 0 -30
16 c-38 20 -34 14 -50 74 -18 67 -7 100 32 100 23 0 32 -8 50 -42 30 -61 35
-91 17 -116 -22 -31 0 -27 25 4 25 32 27 79 5 122 -8 18 -16 32 -17 32 -1 0
-16 4 -32 8 -17 5 -45 5 -63 0z"/>
<path d="M4554 6133 c3 -8 6 -21 6 -29 0 -23 17 -16 22 10 4 18 0 26 -14 30
-14 3 -18 1 -14 -11z"/>
<path d="M4637 6109 c3 -11 1 -30 -5 -42 -6 -12 -20 -43 -31 -69 -11 -27 -26
-48 -33 -48 -14 0 21 -18 86 -44 49 -20 53 -20 66 5 10 19 10 20 -9 10 -26
-15 -43 -14 -66 3 -18 13 -18 15 -1 62 35 97 39 104 55 104 8 0 -1 9 -22 20
-46 25 -46 25 -40 -1z"/>
<path d="M1917 6091 c-3 -14 0 -21 9 -21 16 0 18 9 5 28 -6 10 -10 9 -14 -7z"/>
<path d="M1193 6042 c-47 -18 -53 -27 -24 -35 11 -3 22 -17 26 -36 4 -18 13
-44 21 -59 8 -15 14 -37 14 -49 0 -16 5 -20 20 -16 29 8 32 17 15 49 -15 30
-19 54 -9 54 3 0 23 -14 44 -31 30 -25 45 -30 65 -25 l27 7 -27 24 c-14 14
-29 25 -34 25 -21 0 -28 23 -15 48 30 58 -31 80 -123 44z m73 0 c19 -12 27
-52 14 -67 -19 -23 -36 -18 -50 15 -19 46 1 75 36 52z"/>
<path d="M4800 5953 c-58 -59 -71 -76 -60 -84 8 -5 20 -9 25 -9 6 0 3 5 -5 10
-13 8 -11 14 13 35 15 14 27 29 27 33 0 4 9 13 20 20 19 11 20 10 20 -24 0
-32 -2 -35 -22 -30 l-23 6 23 -11 c27 -15 31 -59 5 -59 -15 -1 -16 -2 -3 -9 8
-5 25 -12 36 -15 21 -6 22 -4 23 104 1 60 0 109 -1 109 -2 -1 -37 -35 -78 -76z"/>
<path d="M1036 5965 c-56 -27 -78 -45 -55 -45 13 0 79 -124 79 -150 0 -14 4
-13 70 20 59 30 68 42 51 68 -6 10 -10 5 -14 -15 -4 -18 -15 -34 -31 -41 -23
-10 -27 -8 -46 17 -11 16 -20 34 -20 39 0 18 29 22 45 6 20 -20 19 -11 -2 29
-16 30 -18 30 -21 10 -7 -46 -52 -14 -52 36 0 25 44 39 70 23 15 -9 17 -8 13
9 -7 24 -26 23 -87 -6z"/>
<path d="M4976 5910 c8 -71 -7 -117 -39 -122 -20 -3 -18 -6 11 -22 19 -9 35
-16 35 -14 24 49 42 78 47 78 3 0 15 8 26 18 11 9 28 22 38 27 20 11 23 28 7
33 -6 2 -11 -1 -11 -8 0 -12 -50 -59 -62 -60 -12 0 -9 85 3 97 7 7 1 14 -22
22 -17 6 -34 11 -36 11 -2 0 -1 -27 3 -60z"/>
<path d="M895 5891 c-17 -8 -24 -16 -17 -19 17 -5 44 -60 37 -72 -3 -6 -13
-10 -21 -10 -8 0 -14 -4 -14 -10 0 -14 13 -13 29 3 18 18 53 -29 46 -65 l-4
-28 34 22 c18 13 30 25 26 28 -9 6 -78 132 -82 151 -4 13 -8 13 -34 0z"/>
<path d="M797 5833 c-25 -12 -27 -16 -14 -26 18 -14 77 -124 77 -143 0 -8 3
-14 8 -14 12 1 58 40 46 40 -6 0 -19 17 -30 38 -10 20 -22 39 -25 42 -3 3 -12
21 -20 42 -14 36 -14 36 -42 21z"/>
<path d="M5121 5814 c-27 -22 -31 -32 -31 -72 1 -44 25 -92 46 -92 4 0 3 5 -4
12 -32 32 3 123 62 159 l31 19 -37 0 c-25 0 -46 -8 -67 -26z"/>
<path d="M5250 5777 c0 -41 -31 -92 -72 -117 l-33 -20 37 0 c67 0 119 67 103
133 -10 40 -35 43 -35 4z"/>
<path d="M5735 4597 c-16 -12 -40 -31 -53 -43 l-23 -21 22 -46 c13 -26 26 -47
30 -47 4 0 -4 21 -18 46 l-26 47 29 21 c36 27 81 65 74 65 -3 0 -18 -10 -35
-22z"/>
<path d="M310 4573 c1 -9 50 -47 54 -41 2 1 -10 13 -25 26 -16 13 -29 20 -29
15z"/>
<path d="M321 4469 c-35 -56 -41 -74 -12 -38 20 26 54 89 48 89 -2 0 -18 -23
-36 -51z"/>
<path d="M5726 4417 c3 -10 9 -15 12 -12 3 3 0 11 -7 18 -10 9 -11 8 -5 -6z"/>
</g>
</svg>
